<?xml version="1.0" encoding="utf-8"?>
<!-- Generator: Adobe Illustrator 15.0.0, SVG Export Plug-In . SVG Version: 6.00 Build 0)  -->
<!DOCTYPE svg PUBLIC "-//W3C//DTD SVG 1.1//EN" "http://www.w3.org/Graphics/SVG/1.1/DTD/svg11.dtd">
<svg version="1.1" id="Layer_1" xmlns="http://www.w3.org/2000/svg" xmlns:xlink="http://www.w3.org/1999/xlink" x="0px" y="0px"
	 width="800px" height="600px" viewBox="0 0 800 600" enable-background="new 0 0 800 600" xml:space="preserve">
<path fill-rule="evenodd" clip-rule="evenodd" d="M393,295.455v-1.818c0-0.669,0.545-1.212,1.217-1.212h11.565
	c0.672,0,1.217,0.543,1.217,1.212v1.818H393z"/>
<path fill-rule="evenodd" clip-rule="evenodd" d="M403.348,293.03v-1.818c0-0.669-0.545-1.212-1.217-1.212h-4.261
	c-0.672,0-1.217,0.543-1.217,1.212v1.818h1.217v-1.212c0-0.334,0.272-0.606,0.609-0.606h3.043c0.336,0,0.609,0.271,0.609,0.606
	v1.212H403.348z"/>
<path fill-rule="evenodd" clip-rule="evenodd" d="M406.391,296.667v12.121c0,0.67-0.545,1.212-1.217,1.212h-10.348
	c-0.672,0-1.217-0.542-1.217-1.212v-12.121H406.391z M396.348,298.485c0.504,0,0.913,0.407,0.913,0.909v7.878
	c0,0.502-0.409,0.909-0.913,0.909s-0.913-0.407-0.913-0.909v-7.878C395.435,298.892,395.843,298.485,396.348,298.485z M400,298.485
	c0.504,0,0.913,0.407,0.913,0.909v7.878c0,0.502-0.409,0.909-0.913,0.909s-0.913-0.407-0.913-0.909v-7.878
	C399.087,298.892,399.496,298.485,400,298.485z M403.652,298.485c0.504,0,0.913,0.407,0.913,0.909v7.878
	c0,0.502-0.409,0.909-0.913,0.909s-0.913-0.407-0.913-0.909v-7.878C402.739,298.892,403.148,298.485,403.652,298.485z"/>
</svg>
