<?xml version="1.0" standalone="no"?>
<!DOCTYPE svg PUBLIC "-//W3C//DTD SVG 1.1//EN" "http://www.w3.org/Graphics/SVG/1.1/DTD/svg11.dtd">
<svg xmlns="http://www.w3.org/2000/svg">
<metadata>Generated by Fontastic.me</metadata>
<defs>
<font id="ilog" horiz-adv-x="512">
<font-face font-family="ilog" units-per-em="512" ascent="480" descent="-32"/>
<missing-glyph horiz-adv-x="512" />

<glyph unicode="&#98;" d="M0 64l512 0 0-32-512 0z m0 320l128 0 0-288-128 0z m192-128l128 0 0-160-128 0z m192 224l128 0 0-384-128 0z"/>
<glyph unicode="&#100;" d="M62 170c-7 5-14 7-23 7-21 0-39-17-39-39 0-22 18-40 39-40 22 0 40 18 40 40 0 6-2 12-4 17m-68 5c-4-6-7-14-7-22 0-22 18-40 39-40 22 0 40 18 40 40 0 22-18 39-40 39-6 0-12-1-17-4m330 69c-5 3-11 4-17 4-13 0-24-6-32-16m153 118c5-2 11-3 17-3 21 0 39 17 39 39 0 22-18 39-39 39-22 0-40-17-40-39 0-9 3-16 8-23m-4 40c-2-5-4-11-4-17 0-22 18-39 40-39 21 0 39 17 39 39 0 22-18 39-39 39-9 0-17-2-23-7m-132-245c5-2 11-4 17-4 21 0 39 18 39 40 0 22-18 39-39 39-22 0-40-17-40-39 0-9 3-17 8-23m-4 40c-2-6-4-11-4-17 0-22 18-40 40-40 21 0 39 18 39 40 0 22-18 39-39 39-9 0-17-3-23-7m-16-27c0-2 0-4 0-5 0-22 17-40 39-40 22 0 39 18 39 40 0 8-2 16-7 23m-173 71c-5 3-10 4-16 4-13 0-25-6-32-16m14-59c6-2 11-4 17-4 22 0 40 18 40 40 0 22-18 39-40 39-21 0-39-17-39-39 0-9 3-17 7-23m-3 40c-3-5-4-11-4-17 0-22 18-40 39-40 22 0 40 18 40 40 0 22-18 39-40 39-8 0-16-3-23-7m-15-27c-1-2-1-3-1-5 0-22 18-40 40-40 21 0 39 18 39 40 0 8-3 16-8 23"/>
<glyph unicode="&#103;" d="M512 375l0 35-102 0 0 102-35 0 0-102-102 0 0 102-34 0 0-102-102 0 0 102-35 0 0-102-102 0 0-35 102 0 0-102-102 0 0-34 102 0 0-102-102 0 0-35 102 0 0-102 35 0 0 102 102 0 0-102 34 0 0 102 102 0 0-102 35 0 0 102 102 0 0 35-102 0 0 102 102 0 0 34-102 0 0 102z m-273-238l-102 0 0 102 102 0z m0 136l-102 0 0 102 102 0z m136-136l-102 0 0 102 102 0z m0 136l-102 0 0 102 102 0z"/>
<glyph unicode="&#104;" d="M38 104c21 0 38 17 38 38 0 6-2 12-4 17l87 75c6-4 13-6 21-6 13 0 24 6 31 15l74-30c0-1-1-3-1-4 0-21 17-38 38-38 21 0 38 17 38 38 0 8-2 15-7 22l95 114c5-2 11-4 17-4 21 0 38 17 38 38 0 21-17 38-38 38-21 0-38-17-38-38 0-8 2-16 7-22l-95-114c-5 2-11 4-17 4-12 0-23-7-30-16l-74 30c0 1 0 3 0 4 0 21-17 38-38 38-21 0-38-17-38-38 0-6 2-11 4-16l-87-76c-6 5-13 7-21 7-21 0-38-17-38-38 0-21 17-38 38-38z"/>
<glyph unicode="&#105;" d="M357 512l-229 0 0-96-96 0 0-416 352 0 0 96 96 0 0 284z m-37-448l-224 0 0 288 32 0 0-256 192 0z m-128 96l0 288 128 0 0-96 96 0 0-192z"/>
<glyph unicode="&#106;" d="M148 407c-86-28-148-109-148-204 0-119 96-216 215-216 72 0 135 35 174 88l-192 110z m193 90c-26 9-54 15-83 15-26 0-51-4-74-12l54-244z m36-58l-108-242 212-122c30 40 47 89 47 142 0 101-63 187-151 222z"/>
<glyph unicode="&#111;" d="M333 512l-301 0 0-512 448 0 0 365z m83-448l-320 0 0 384 211 0 109-109z m-288 96l64 0 0-64-64 0z m96 160l64 0 0-224-64 0z m96-96l64 0 0-128-64 0z"/>
<glyph unicode="&#101;" d="M147 215l-6-40-6-39 40 6 39 5-34 34z m168 78l-23 23m-11 11l-11 11-112-112 67-67 112 112-11 11m46 44l-45 45c-6 6-16 6-22 1 0-1-1-2-1-2l0 0-22-21 67-68 22 22 0 0c0 1 1 1 1 1 6 6 6 16 0 22z m-116-326c-141 0-256 115-256 256 0 141 115 256 256 256 141 0 256-115 256-256 0-141-115-256-256-256z m0 480c-124 0-224-100-224-224 0-124 100-224 224-224 124 0 224 100 224 224 0 124-100 224-224 224z"/>
<glyph unicode="&#109;" d="M256 0c-141 0-256 115-256 256 0 141 115 256 256 256 141 0 256-115 256-256 0-141-115-256-256-256z m0 480c-124 0-224-100-224-224 0-124 100-224 224-224 124 0 224 100 224 224 0 124-100 224-224 224z m-112-172l0 21c0 12 10 21 21 21l182 0c11 0 21-9 21-21l0-21z m171 32l0 31c0 12-10 21-22 21l-74 0c-12 0-22-9-22-21l0-31 22 0 0 21c0 5 4 10 10 10l54 0c6 0 10-5 10-10l0-21z m0-178l-32 0 0 125 32 0z m-43 0l-32 0 0 125 32 0z m-43 0l-32 0 0 125 32 0z m-64 146l0-167c0-12 10-21 22-21l138 0c12 0 22 9 22 21l0 167z"/>
<glyph unicode="&#97;" d="M256 0c-141 0-256 115-256 256 0 141 115 256 256 256 141 0 256-115 256-256 0-141-115-256-256-256z m0 480c-124 0-224-100-224-224 0-124 100-224 224-224 123 0 224 100 224 224 0 124-101 224-224 224z m140-264l0 80-140 0 0 80-140-123 140-117 0 80z"/>
<glyph unicode="&#120;" d="M256 0c-141 0-256 115-256 256 0 141 115 256 256 256 141 0 256-115 256-256 0-141-115-256-256-256z m0 480c-124 0-224-100-224-224 0-124 100-224 224-224 123 0 224 100 224 224 0 124-101 224-224 224z m-32-288l32 0 0-32-32 0z m-96 192l0-256 224 0 32 32 0 224z m176-240l-96 0 0 64 96 0z m32 112l-160 0 0 112 160 0z"/>
<glyph unicode="&#99;" d="M21 105l0 286 147-122z m13-35l149 177 72-59 72 59 149-177z m-13 370l0-14 234-191 234 191 1 14z m468-335l-149 166 149 120z"/>
<glyph unicode="&#113;" d="M328 171c-14 0-27-4-38-10l-63 61c3 8 5 16 5 24 0 14-4 27-11 38l22 22 44 46c12-7 26-12 41-12 43 0 78 34 78 76 0 42-35 76-78 76-43 0-77-34-77-76 0-14 4-27 11-38l-44-46-22-22c-12 8-26 12-42 12-43 0-77-34-77-76 0-41 34-75 77-75 20 0 38 7 52 19l56-55c-7-12-11-25-11-40 0-41 34-75 77-75 43 0 78 34 78 75 0 42-35 76-78 76z"/>
<glyph unicode="&#114;" d="M434 167l0 119-148 0 0-119-51 0 64-70 65-68 65 69 64 69z m-217-89l-139 0 0 356 166 0 89-89 71 0 0 12-136 136-249 0 0-474 255 0-56 58z"/>
<glyph unicode="&#110;" d="M256 0c-141 0-256 115-256 256 0 141 115 256 256 256 141 0 256-115 256-256 0-141-115-256-256-256z m0 480c-124 0-224-100-224-224 0-124 100-224 224-224 124 0 224 100 224 224 0 124-100 224-224 224z m-59-94c14 9 31 14 52 14 27 0 49-7 67-19 18-13 27-33 27-58 0-16-4-29-12-39-4-7-13-15-26-25l-13-10c-6-5-11-12-13-19-2-4-3-11-3-21l-48 0c0 20 2 34 5 42 3 8 11 17 24 27l13 10c5 3 8 7 11 10 5 7 7 14 7 22 0 9-3 18-8 25-5 8-15 11-29 11-14 0-24-4-30-14-5-9-8-18-8-28l-52 0c1 34 13 58 36 72z m29-202l54 0 0-52-54 0z"/>
<glyph unicode="&#115;" d="M256 0c-141 0-256 115-256 256 0 141 115 256 256 256 141 0 256-115 256-256 0-141-115-256-256-256z m0 480c-124 0-224-100-224-224 0-124 100-224 224-224 124 0 224 100 224 224 0 124-100 224-224 224z m33-191l0 88-66 0 0-88-88 0 0-66 88 0 0-88 66 0 0 88 88 0 0 66z"/>
<glyph unicode="&#116;" d="M256 0c-141 0-256 115-256 256 0 141 115 256 256 256 141 0 256-115 256-256 0-141-115-256-256-256z m0 480c-124 0-224-100-224-224 0-124 100-224 224-224 124 0 224 100 224 224 0 124-100 224-224 224z m107-117l-214 0 0-23 86-105 0-62 42-24 0 86 86 105z"/>
<glyph unicode="&#117;" d="M256 0c-141 0-256 115-256 256 0 141 115 256 256 256 141 0 256-115 256-256 0-141-115-256-256-256z m0 480c-124 0-224-100-224-224 0-124 100-224 224-224 124 0 224 100 224 224 0 124-100 224-224 224z m0-198c0 0 0 0 0 0 0 0 0 0 0 0l0 0c-14-1-25-12-25-26 0-14 11-25 25-25l0-1c0 0 0 1 0 1 0 0 0-1 0-1l0 1c14 0 25 11 25 25 0 14-11 25-25 26z m151-5c-31 25-84 63-151 64 0 0 0 0 0 0 0 0 0 0 0 0-67-1-120-39-151-64-2-2-12-9-12-20-1-7 3-12 8-16 25-25 81-69 155-70l0 0c0 0 0 0 0 0 0 0 0 0 0 0l0 0c74 1 130 45 155 70 5 4 9 9 8 16 0 11-10 18-12 20z m-151-87c-36 1-65 30-65 66 0 36 29 65 65 66 36-1 65-30 65-66 0-36-29-65-65-66z"/>
<glyph unicode="&#118;" d="M256 0c-141 0-256 115-256 256 0 141 115 256 256 256 141 0 256-115 256-256 0-141-115-256-256-256z m0 480c-124 0-224-100-224-224 0-124 100-224 224-224 124 0 224 100 224 224 0 124-100 224-224 224z m23-278c-9 0-17-2-24-6l-40 39c2 4 3 10 3 15 0 9-2 17-7 24l14 14 28 29c7-5 16-7 26-7 27 0 49 21 49 47 0 27-22 48-49 48-27 0-49-21-49-48 0-8 3-17 7-24l-28-29-13-14c-8 5-17 8-27 8-27 0-49-22-49-48 0-26 22-48 49-48 13 0 24 5 32 12l36-35c-4-7-7-15-7-24 0-27 22-48 49-48 27 0 49 21 49 48 0 26-22 47-49 47z"/>
<glyph unicode="&#102;" d="M256 0c-141 0-256 115-256 256 0 141 115 256 256 256 141 0 256-115 256-256 0-141-115-256-256-256z m0 480c-123 0-224-100-224-224 0-124 101-224 224-224 124 0 224 100 224 224 0 124-100 224-224 224z m108-129l-221 0 0-167 55 0 0-55 78 55 88 0z"/>
<glyph unicode="&#107;" d="M512 394l-256-276-256 276z"/>
<glyph unicode="&#108;" d="M0 118l256 276 256-276z"/>
</font>
</defs>
</svg>
